<svg version="1.1" id="Layer_1" xmlns="http://www.w3.org/2000/svg" xmlns:xlink="http://www.w3.org/1999/xlink" x="0px"
    y="0px" width="100%" viewBox="0 0 477 365" enable-background="new 0 0 477 365" xml:space="preserve">

    <path fill="#feee91" opacity="1.000000" stroke="none" d="
M168.179596,188.096191 
    C178.434235,185.874344 188.325699,184.663300 198.268494,187.257019 
    C217.680466,192.320938 230.470367,208.919418 230.648178,229.010132 
    C230.752548,240.804108 229.530197,252.713242 233.103622,264.250183 
    C242.089447,293.261322 261.062836,312.866608 289.327911,323.633148 
    C293.572784,325.250061 299.053711,325.524475 299.008942,331.882050 
    C298.965302,338.083038 293.588867,338.818939 289.349060,340.373474 
    C237.165329,359.506439 187.879150,353.219818 141.645065,322.850739 
    C128.760757,314.387573 117.457420,303.981079 110.011864,290.098572 
    C98.547523,268.722809 99.077209,237.718842 122.117035,214.646408 
    C135.026062,201.719101 150.053497,192.684982 168.179596,188.096191 
z" />

    <path fill="#ffa239" opacity="1.000000" stroke="none" d="
M247.642456,198.642792 
    C256.599548,190.092316 266.865417,186.012939 278.985138,185.783646 
    C290.767731,185.560730 302.825989,185.926407 314.248535,183.554764 
    C338.265930,178.568024 355.609589,163.650742 367.643799,142.585480 
    C370.839844,136.990997 372.734039,130.664383 375.741913,124.945282 
    C376.973969,122.602707 379.281189,119.921150 381.619202,119.274956 
    C385.195801,118.286430 387.769836,120.970734 389.098175,124.420631 
    C396.958344,144.834763 401.289093,165.890610 400.633789,187.854614 
    C399.813324,215.354416 392.423676,240.981720 378.481628,264.672943 
    C370.662964,277.958954 361.318787,290.066101 348.810974,299.312897 
    C323.351532,318.134491 291.486938,315.545410 267.591614,293.284454 
    C250.771164,277.614441 240.495239,258.478088 236.307648,236.059021 
    C233.666702,221.920288 237.057724,209.302704 247.642456,198.642792 
z" />

    <path fill="#ffa239" opacity="1.000000" stroke="none" d="
M227.868439,125.194244 
    C231.036118,138.212997 230.593811,150.309082 223.264221,161.615631 
    C215.051407,174.284622 203.032318,180.051651 188.434067,180.811646 
    C178.134445,181.347870 167.694321,180.326584 157.501236,181.543991 
    C131.649109,184.631668 112.413544,198.640701 98.764526,220.322266 
    C94.829468,226.573105 92.428238,233.809998 89.521553,240.678482 
    C88.219254,243.755798 86.843407,246.537430 83.067116,246.742737 
    C79.031258,246.962173 77.249680,244.299759 75.937057,240.964005 
    C53.844715,184.820663 66.722855,117.846710 107.024017,76.792015 
    C120.772240,62.786747 137.200317,54.491795 157.480560,55.959656 
    C172.696472,57.060959 185.563690,63.488022 196.902222,73.402473 
    C212.710327,87.225128 222.679718,104.538055 227.868439,125.194244 
z" />

    <path fill="#feee91" opacity="1.000000" stroke="none" d="
M328.923950,162.818726 
    C328.923950,162.818726 328.667572,163.091522 328.124756,163.103546 
    C326.033875,164.360992 324.485779,165.606415 322.937714,166.851852 
    C322.937714,166.851852 322.652161,167.093445 322.094849,167.111938 
    C319.309052,168.165527 317.130524,169.330170 314.843048,170.212219 
    C306.905426,173.273102 298.929932,176.235825 290.968842,179.235886 
    C290.639862,179.307587 290.310913,179.379303 289.334839,179.294067 
    C287.086884,179.586212 285.485992,180.035278 283.885132,180.484344 
    C283.451172,180.573654 283.017212,180.662949 281.936829,180.488586 
    C275.966278,179.270264 270.579865,178.568771 265.338562,177.277908 
    C261.403503,176.308746 257.654968,174.582153 253.823410,173.192764 
    C253.823410,173.192764 253.921051,173.002869 253.797882,172.772522 
    C250.857330,170.333237 248.039932,168.124298 245.222534,165.915375 
    C245.222534,165.915375 244.942551,165.641357 244.920654,165.116974 
    C244.032806,163.692612 243.166855,162.792664 242.300888,161.892700 
    C242.300888,161.892700 242.009918,161.604843 241.962219,161.071625 
    C241.228317,159.709442 240.542099,158.880508 239.855881,158.051575 
    C239.855881,158.051575 239.635254,157.816788 239.709961,157.257690 
    C239.144974,154.687958 238.099335,152.710007 237.934479,150.661163 
    C237.141800,140.809692 236.628082,130.936111 235.914017,121.077705 
    C235.765442,119.026558 235.187607,117.006500 234.807617,114.972115 
    C234.623016,113.856277 234.438431,112.740433 234.489685,111.013283 
    C231.517227,101.169708 228.473663,91.874435 224.982605,82.750366 
    C224.130753,80.524002 221.810913,78.859314 220.166031,76.936371 
    C220.166031,76.936371 219.912384,76.657120 219.883118,76.133102 
    C218.953323,74.718491 218.052795,73.827888 217.152267,72.937286 
    C216.500610,72.175652 215.848969,71.414032 215.065170,70.041702 
    C214.167145,68.755157 213.401260,68.079308 212.635376,67.403458 
    C212.635376,67.403465 212.866211,67.159836 212.745407,66.961441 
    C212.135483,66.483658 211.646347,66.204262 211.157227,65.924866 
    C211.157227,65.924866 210.891373,65.721466 210.797562,65.257484 
    C210.192917,64.496063 209.682068,64.198624 209.171234,63.901184 
    C208.772217,63.562157 208.373199,63.223133 207.824295,62.360886 
    C207.341049,61.700191 207.007675,61.562721 206.674316,61.425255 
    C206.674316,61.425255 206.691376,61.326912 206.650024,60.991043 
    C205.297974,59.850700 203.987274,59.046219 202.676559,58.241737 
    C202.676559,58.241741 202.325531,58.074688 202.141006,57.616920 
    C201.266983,56.796314 200.577484,56.433475 199.887985,56.070637 
    C199.421829,55.745884 198.955688,55.421131 198.212097,54.582047 
    C197.214828,53.763271 196.494965,53.458817 195.775116,53.154366 
    C195.775116,53.154366 195.389191,52.995907 195.183350,52.518932 
    C188.110306,48.598087 181.396072,44.791882 174.333649,41.810394 
    C167.001694,38.715103 166.044373,37.292824 169.117020,30.210176 
    C169.117020,30.210176 169.131042,30.110291 169.451019,30.126408 
    C170.190536,29.832380 170.610062,29.522238 171.029587,29.212095 
    C171.185272,29.125277 171.340942,29.038454 171.828262,29.130621 
    C172.369904,29.556881 172.637054,29.685104 173.209366,29.564791 
    C173.457962,29.080179 173.458557,28.725056 173.459152,28.369934 
    C173.998581,28.170341 174.537994,27.970745 175.659912,27.846336 
    C176.881012,27.537764 177.519623,27.154007 178.158218,26.770252 
    C179.045853,26.428762 179.933487,26.087273 181.471130,25.788767 
    C182.801407,25.474735 183.481674,25.117716 184.161926,24.760696 
    C184.833832,24.410851 185.505722,24.061001 186.657623,23.906565 
    C187.767578,23.759819 188.397507,23.417658 189.027451,23.075497 
    C190.623810,22.593559 192.220184,22.111622 194.590164,21.761131 
    C197.950882,21.153513 200.537979,20.414452 203.125076,19.675385 
    C204.149094,19.428240 205.173111,19.181095 206.849960,19.237003 
    C207.813522,19.647837 208.147629,19.892340 208.431625,19.843796 
    C223.056274,17.344072 237.713791,17.243454 252.437408,18.932880 
    C269.116943,20.846731 285.286591,24.555218 300.469330,31.930954 
    C307.086761,35.145710 313.657471,38.456631 320.249420,41.723869 
    C320.249420,41.723869 320.204315,41.946518 320.308411,42.131828 
    C320.801819,42.401489 321.191101,42.485840 321.580414,42.570190 
    C321.580414,42.570187 321.856079,42.602570 322.056488,43.038643 
    C327.235016,47.255741 332.213135,51.036758 337.191254,54.817780 
    C337.191254,54.817780 337.007111,54.990875 337.067200,55.267998 
    C338.189606,56.300716 339.251892,57.056309 340.314178,57.811897 
    C342.145874,59.626476 343.977570,61.441055 345.947144,63.880474 
    C346.968323,65.358238 347.851685,66.211159 348.735046,67.064072 
    C348.735046,67.064072 349.033508,67.328552 349.074524,67.892746 
    C350.043945,70.188156 350.956390,71.928169 351.903320,73.649185 
    C360.454163,89.189583 363.175385,105.444313 357.729706,122.624344 
    C356.052002,127.917099 354.049988,133.107056 352.196503,138.344086 
    C352.196503,138.344086 352.090729,138.697296 351.641418,138.886795 
    C350.855804,139.782486 350.519501,140.488678 350.183197,141.194870 
    C350.183197,141.194870 350.066467,141.095230 349.796753,141.194214 
    C348.413055,142.973373 347.299103,144.653580 346.185120,146.333771 
    C346.185150,146.333786 346.053680,146.693192 345.575317,146.856934 
    C343.128510,149.463486 341.160034,151.906281 339.191589,154.349060 
    C338.022339,155.500778 336.853088,156.652496 335.066772,157.931152 
    C333.721436,158.802994 332.993164,159.547867 332.264923,160.292755 
    C332.264923,160.292755 331.974030,160.089340 331.771912,160.128296 
    C330.687836,161.051086 329.805878,161.934906 328.923950,162.818726 
z" />
</svg>